<svg width="16" height="16" viewBox="0 0 16 16" fill="none" xmlns="http://www.w3.org/2000/svg">
<circle cx="8" cy="8" r="7" fill="#D9D9D9"/>
<path d="M8 1.5C4.41049 1.5 1.5 4.41049 1.5 8C1.5 11.5895 4.41049 14.5 8 14.5C11.5895 14.5 14.5 11.5895 14.5 8C14.5 4.41049 11.5895 1.5 8 1.5ZM8.92132 6.95246C8.98516 6.95246 9.03739 7.00469 9.03739 7.06853V7.46317C9.03739 7.52701 8.98516 7.57924 8.92132 7.57924H6.9481C6.94375 7.64308 6.94375 7.71127 6.94375 7.77946V8.30179H8.91987C8.98371 8.30179 9.03594 8.35402 9.03594 8.41786V8.8125C9.03594 8.87634 8.98371 8.92857 8.91987 8.92857H7.02645C7.24844 9.82812 7.91585 10.3592 8.90971 10.3592C9.19844 10.3592 9.44799 10.3417 9.66127 10.2997C9.73237 10.2852 9.79911 10.3403 9.79911 10.4128V11.0338C9.79911 11.089 9.75993 11.1354 9.70625 11.147C9.47556 11.1963 9.20859 11.221 8.90391 11.221C7.31083 11.221 6.24877 10.3679 5.99922 8.92857H5.5625C5.49866 8.92857 5.44643 8.87634 5.44643 8.8125V8.41786C5.44643 8.35402 5.49866 8.30179 5.5625 8.30179H5.94118V7.76641C5.94118 7.70257 5.94118 7.63873 5.94554 7.58069H5.5625C5.49866 7.58069 5.44643 7.52846 5.44643 7.46462V7.06998C5.44643 7.00614 5.49866 6.95391 5.5625 6.95391H6.02243C6.30826 5.58717 7.35725 4.77902 8.90391 4.77902C9.20714 4.77902 9.47556 4.80658 9.70625 4.85737C9.75993 4.86897 9.79766 4.9154 9.79766 4.97054V5.59152H9.79911C9.79911 5.66551 9.73237 5.7192 9.65982 5.70469C9.44654 5.66261 9.19844 5.64085 8.90971 5.64085C7.96083 5.64085 7.30792 6.1269 7.05837 6.95246H8.92132Z" fill="#003399"/>
</svg>
