<svg width="16" height="16" viewBox="0 0 16 16" fill="none" xmlns="http://www.w3.org/2000/svg">
<circle cx="8" cy="8" r="7" fill="white"/>
<g clip-path="url(#clip0_719_210)">
<path d="M8 14.5C11.5899 14.5 14.5 11.5899 14.5 8C14.5 4.41015 11.5899 1.5 8 1.5C4.41015 1.5 1.5 4.41015 1.5 8C1.5 11.5899 4.41015 14.5 8 14.5Z" fill="#0F8FF8"/>
<path fill-rule="evenodd" clip-rule="evenodd" d="M4.75 9.22037L5.07906 8.40625H5.42722C5.41812 8.26696 5.41352 8.1274 5.41341 7.98781C5.41341 7.80608 5.42099 7.63681 5.43616 7.48H4.75L5.07906 6.66628H5.59662C6.07871 5.11793 7.16461 4.34375 8.85434 4.34375C9.40955 4.34375 9.93727 4.41579 10.4375 4.55988V5.58525C9.96694 5.3747 9.45679 5.26722 8.94128 5.27C7.92836 5.27 7.27701 5.73556 6.98722 6.66669H10.0028L9.67375 7.48041H6.79059C6.77342 7.61443 6.76581 7.74952 6.76784 7.88462C6.76784 8.07908 6.77394 8.25309 6.78613 8.40666H9.29797L8.97297 9.22037H6.96C7.17667 9.78452 7.44059 10.1772 7.75178 10.3985C8.0627 10.6195 8.50646 10.73 9.08306 10.73C9.49473 10.73 9.94621 10.6297 10.4375 10.429V11.393C9.97085 11.5685 9.41565 11.6562 8.77187 11.6562C7.0789 11.6562 6.00829 10.8443 5.56006 9.22037H4.75Z" fill="white"/>
</g>
<defs>
<clipPath id="clip0_719_210">
<rect width="13" height="13" fill="white" transform="translate(1.5 1.5)"/>
</clipPath>
</defs>
</svg>
