<svg width="16" height="16" viewBox="0 0 16 16" fill="none" xmlns="http://www.w3.org/2000/svg">
<circle cx="8" cy="8" r="7" fill="white"/>
<circle cx="8" cy="8" r="6.5" fill="#034206"/>
<path d="M4 7.11111C4 6.86565 4.19898 6.66667 4.44444 6.66667H5V4.64654C5 4.28947 5.28947 4 5.64654 4V4C5.8668 4 6.0719 4.11213 6.1908 4.29754L7.71 6.66667H10V4.5C10 4.22386 10.2239 4 10.5 4V4C10.7761 4 11 4.22386 11 4.5V6.66667H11.5556C11.801 6.66667 12 6.86565 12 7.11111V7.11111C12 7.35657 11.801 7.55556 11.5556 7.55556H11V8.44444H11.5556C11.801 8.44444 12 8.64343 12 8.88889V8.88889C12 9.13435 11.801 9.33333 11.5556 9.33333H11V11.3531C11 11.7104 10.7104 12 10.3531 12V12C10.133 12 9.92805 11.8881 9.809 11.703L8.285 9.33333H6V11.5C6 11.7761 5.77614 12 5.5 12V12C5.22386 12 5 11.7761 5 11.5V9.33333H4.44444C4.19898 9.33333 4 9.13435 4 8.88889V8.88889C4 8.64343 4.19898 8.44444 4.44444 8.44444H5V7.55556H4.44444C4.19898 7.55556 4 7.35657 4 7.11111V7.11111ZM6 6.66667H6.565L6 5.79111V6.66667ZM6 7.55556V8.44444H7.71L7.14 7.55556H6ZM10 10.2222V9.33333H9.425L10 10.2222ZM8.28 7.55556L8.855 8.44444H10V7.55556H8.28Z" fill="white"/>
</svg>
