<svg width="70" height="70" viewBox="0 0 70 70" fill="none" xmlns="http://www.w3.org/2000/svg">
<g clip-path="url(#clip0_759_228)">
<path d="M35 70C54.33 70 70 54.33 70 35C70 15.67 54.33 0 35 0C15.67 0 0 15.67 0 35C0 54.33 15.67 70 35 70Z" fill="#C0C0C0"/>
<path d="M34.4531 8.75C20.2563 8.75 8.75 20.2563 8.75 34.4531C8.75 48.65 20.2563 60.1562 34.4531 60.1562C48.65 60.1562 60.1562 48.65 60.1562 34.4531C60.1562 27.6362 57.4482 21.0985 52.628 16.2783C47.8077 11.458 41.27 8.75 34.4531 8.75ZM34.4531 53.7469C29.3361 53.7469 24.4287 51.7141 20.8104 48.0959C17.1921 44.4776 15.1594 39.5701 15.1594 34.4531C15.1594 29.3361 17.1921 24.4287 20.8104 20.8104C24.4287 17.1921 29.3361 15.1594 34.4531 15.1594C39.5701 15.1594 44.4776 17.1921 48.0959 20.8104C51.7141 24.4287 53.7469 29.3361 53.7469 34.4531C53.7469 39.5701 51.7141 44.4776 48.0959 48.0959C44.4776 51.7141 39.5701 53.7469 34.4531 53.7469ZM28.0437 34.475L34.475 44.1L40.8625 34.475L34.475 24.8281L28.0437 34.475Z" fill="white"/>
</g>
<defs>
<clipPath id="clip0_759_228">
<rect width="70" height="70" fill="white"/>
</clipPath>
</defs>
</svg>
