<svg width="16" height="16" viewBox="0 0 16 16" fill="none" xmlns="http://www.w3.org/2000/svg">
<circle cx="8" cy="8" r="7" fill="white"/>
<path fill-rule="evenodd" clip-rule="evenodd" d="M8 14.5C4.40997 14.5 1.5 11.59 1.5 8C1.5 4.40997 4.40997 1.5 8 1.5C11.59 1.5 14.5 4.40997 14.5 8C14.5 11.59 11.59 14.5 8 14.5ZM10.6406 9.28131C10.6406 8.25634 10.0004 7.67744 8.50253 7.31669V5.51294C8.96566 5.608 9.40887 5.80747 9.84234 6.12069L10.3944 5.22856C9.85054 4.83042 9.21185 4.58166 8.54194 4.50706V3.9375H7.68475V4.48797C6.453 4.58303 5.61572 5.28544 5.61572 6.31041C5.61572 7.38291 6.28563 7.90494 7.72416 8.26569V10.1263C7.0835 10.0312 6.55172 9.74647 5.98987 9.30975L5.35938 10.1734C6.03432 10.6929 6.83843 11.018 7.68475 11.1135V12.0625H8.54194V11.1228C9.79319 11.0184 10.6406 10.3254 10.6406 9.28131ZM7.72375 7.11722C6.96528 6.89906 6.77841 6.64272 6.77841 6.24378C6.77841 5.82656 7.10341 5.49425 7.72416 5.44672L7.72375 7.11722ZM9.47794 9.34753C9.47794 9.80334 9.12328 10.1166 8.50253 10.1641V8.44606C9.27116 8.66462 9.47794 8.92016 9.47794 9.34753Z" fill="#6CDE07"/>
</svg>
