<svg width="108" height="388" viewBox="0 0 108 388" fill="none" xmlns="http://www.w3.org/2000/svg">
<path d="M84 380L81 383V384V383L84 380ZM84 380L87 383V384V383L84 380Z" stroke="#90EE90" stroke-width="0.5"/>
<path d="M45 380L44 381V382L42 384V387V384L46 380L48 382L46 380H45Z" stroke="#90EE90" stroke-width="0.5"/>
<path d="M7 380L4 383V387V383L7 380ZM7 380L10 383L7 380Z" stroke="#90EE90" stroke-width="0.5"/>
<path d="M1 373L4 376V377L1 380L4 377V376L1 373Z" stroke="#90EE90" stroke-width="0.5"/>
<path d="M81 369V370L84 373H85V372L87 370L84 373L81 370V369Z" stroke="#90EE90" stroke-width="0.5"/>
<path d="M54 364V365L55 364H58L61 367V368L62 369V372L61 373H57L54 370L56 372L55 373H52L49 376V377L52 380H55L56 381L54 383V384V383L57 380H61H59L58 379L60 377V376L58 374L59 373H61L62 372V370L63 369L58 364H54Z" stroke="#90EE90" stroke-width="0.5"/>
<path d="M26 360L23 363V366L22 367L19 364H15V370L17 372L16 373H14L11 376V377L12 378V379L13 380H16L17 381V382L15 384V387V384L19 380H22L23 381V385L21 387H23V385L26 382L30 386V387H32L30 385V381L31 380H34L38 384V387V384L36 382V381L37 380H40V379L42 377V376L39 373H37L36 372V371L38 369V364H34L33 365H32V366L31 367L30 366V363L27 360H26Z" stroke="#90EE90" stroke-width="0.5"/>
<path d="M103 359V360L100 363V366L99 367L96 364H92V370L94 372L93 373H90L89 374V375L87 377L90 380H93L94 381V382L92 384V387V384L96 380H99L100 381V385L98 387H100V385L103 382L107 386V387V380V383L106 384L104 382H103L101 384L100 383V380H97L96 379L98 377V376L96 374L97 373H100V370L101 369L103 371H104L106 369L107 370V373V363L103 359Z" stroke="#90EE90" stroke-width="0.5"/>
<path d="M65 359L62 362V365V362L64 360H65L68 363V368L65 371H64H65L67 369L68 370V373H71L72 374L70 376V377L72 379L71 380H68V383L67 384L65 382L63 384L62 383V382V385L60 387H61L62 386V385L65 382L68 385V387H70L68 385V381L69 380H72L73 381H74L75 382V383L76 384V383L74 381L75 380H78L81 377L80 376V375L78 373H75L74 372L76 370V369V370L73 373H69L68 372V368L72 364H75L76 365V364H72L69 367L68 366V362L65 359Z" stroke="#90EE90" stroke-width="0.5"/>
<path d="M10 348L8 350H6L5 349L7 351L4 354L7 351L12 356L7 361L3 357V356L1 354L2 355V356L1 357V358L2 357H3L7 361L4 364V370L7 373H8L10 371V370L7 373L4 370V364L7 361L10 364L8 362V360L11 357H13L16 360H20L23 357V356L22 355V354L21 353H20L23 356L19 360H16L12 356L15 353L12 356L8 352V350L10 348Z" stroke="#90EE90" stroke-width="0.5"/>
<path d="M81 347V348L84 351L80 355H79L77 353H76L79 356L75 360H72L68 356L71 353L68 356L72 360H76L79 357H80L84 361L81 364V365V364L83 362H85L87 364V365V364L85 362V360L89 356L93 360H97L99 358V357L100 356L99 355V354L98 353H97L100 356L96 360H93L89 356L92 353L89 356L84 351L87 348V347V348L85 350H83L81 348V347Z" stroke="#90EE90" stroke-width="0.5"/>
<path d="M84 339L81 342L84 339ZM84 339H85H84Z" stroke="#90EE90" stroke-width="0.5"/>
<path d="M45 339L43 341L45 339ZM45 339H46L49 342V347L46 350H45L42 347V343V347L45 350V352L41 356L38 353L41 356L37 360H33L30 357V355L32 353H33H32L30 355V357L33 360H37L40 357H42L44 359V360L45 361V362L42 365V369V365L46 361L47 362V363L49 365V370L46 373H45L43 371L45 373H46L49 370V365L48 364V363L46 361L49 358V357L50 356L54 360H58L62 356L59 353L61 355V357L58 360H54L51 357V355L53 353H54H53L50 356L48 354V353L46 351L47 350V349L49 347V342L46 339H45Z" stroke="#90EE90" stroke-width="0.5"/>
<path d="M7 339L4 342V347V342L7 339ZM7 339L10 342V341L8 339H7Z" stroke="#90EE90" stroke-width="0.5"/>
<path d="M1 332L4 335V336L1 339L4 336V335L1 332Z" stroke="#90EE90" stroke-width="0.5"/>
<path d="M54 329L56 331L55 332H52L49 335V336L52 339H54L55 340V341L54 342L57 339H61L62 340L61 339H59L58 338L60 336V335L58 333L59 332H61L62 331L61 332H57L54 329Z" stroke="#90EE90" stroke-width="0.5"/>
<path d="M81 328V329L84 332L87 329L84 332L81 329V328Z" stroke="#90EE90" stroke-width="0.5"/>
<path d="M26 319L23 322V325L22 326L19 323H15V329H16L17 330V331L16 332H13L12 333L13 332H18L21 335V336L18 339H13L12 338V337L11 336V335V336L12 337V338L13 339H16L17 340L15 342V348H19L22 345L23 346V349L26 352H27L30 349V346L31 345L32 346V347H33L34 348H38V343L36 341V340L37 339H39L42 336V335L41 334L42 335V336L39 339H35L32 336V335L33 334V333L34 332H39H37L36 331V330L38 328V323H34L33 324H32V325L31 326L30 325V322L27 319H26Z" stroke="#90EE90" stroke-width="0.5"/>
<path d="M103 318L101 320V321L100 322V324L99 325H98L96 323H92V328L93 329V330L94 331L93 332H90L87 335L88 336V337L90 339H93L94 340L92 342V348H96L98 346H99L100 347V349L102 351V352L103 353L107 349V339V342L106 343L104 341H103L101 343L100 342V339H98L97 338V337L98 336V335L97 334V333L98 332H99L100 331V329L101 328L103 330H104L106 328L107 329V332V322L103 318Z" stroke="#90EE90" stroke-width="0.5"/>
<path d="M65 318L62 321V324L61 325H60L58 323H54V324L55 323H58L62 327V329L63 328L65 330L67 328L68 329V331L69 332H71L72 333L70 335V336L72 338L71 339H68V342L67 343L65 341H64H65L68 344V349L67 350V351L66 352H64L62 350V347L61 346V345L63 343L62 342V344L58 348H55L54 347V348H58L60 346H61L62 347V350L65 353L68 350V347L69 346H70L72 348H76V347L75 348H72L68 344V340L69 339H73L76 342L74 340L75 339H78L81 336V335L78 332H75L74 331L76 329V328V329L73 332H69L68 331V327L72 323H75L76 324V323H72L70 325H69L68 324V321L65 318Z" stroke="#90EE90" stroke-width="0.5"/>
<path d="M81 306L82 307V308L84 310L80 314H79L76 311H71L68 314V315L71 318H76L79 315L84 320L81 323V324V323L84 320L87 323L85 321V319L89 315L92 318H97L100 315V314L97 311H92L89 314H88L86 312L88 314V316L85 319H84L83 318H82L80 316V314L84 310H85V309L87 307V306V307L85 309H84L81 306Z" stroke="#90EE90" stroke-width="0.5"/>
<path d="M84 297L81 300V301L84 298H85L87 300V301V300L84 297Z" stroke="#90EE90" stroke-width="0.5"/>
<path d="M46 297L42 301V306L45 309V310L41 314H40L39 313V312L38 311H33L30 314V315L33 318H38L41 315L45 319V320L43 322V323L42 324V328L46 332L49 329V323L46 320V319L50 315L51 316H52L54 318H59L62 315L61 314V313L60 312H59L58 311H54L51 314H50L46 310V309L49 306L46 309H45L42 306V301L45 298H46L49 301L46 298V297Z" stroke="#90EE90" stroke-width="0.5"/>
<path d="M7 297L5 299V300L4 301V306L6 308V309L7 310L3 314H2L1 313L2 314V315L1 316L2 315H3L5 317V318L7 320L4 323V329L7 332L10 329L7 332L4 329V323L7 320L10 323L8 321V319L12 315L15 318H20L23 315V314L20 311H15L12 314H11L10 313V312L8 310V309L10 307V306V307L8 309H7L4 306V301L7 298H8L10 300L7 297Z" stroke="#90EE90" stroke-width="0.5"/>
<path d="M1 290V291L4 294L1 297H2V296L4 294L2 292V291L1 290Z" stroke="#90EE90" stroke-width="0.5"/>
<path d="M10 288L8 290H6L5 289L7 291L10 288Z" stroke="#90EE90" stroke-width="0.5"/>
<path d="M81 287V288L84 291L87 288V287V288L85 290H84L83 289H82L81 288V287Z" stroke="#90EE90" stroke-width="0.5"/>
<path d="M103 277L100 280V283L99 284L97 282H92V287L94 289L93 290H91L87 294L91 298H93L94 299L92 301V306H97L99 304L100 305V308L103 311H104L107 308V298V301L106 302L103 299V300L102 301H101L100 300V298H98L97 297V296L98 295V293L96 291L97 290H100V288L101 287L103 289L105 287H106L107 288V290V281L106 280V279L104 277H103Z" stroke="#90EE90" stroke-width="0.5"/>
<path d="M65 277L62 280V283L61 284H60L58 282H57H58L62 286V289L61 290H52L51 291V292L49 294L53 290H56L60 294L56 298H53L52 297H51L50 296L51 297H52L53 298H55L56 299L54 301L57 298H61L62 299V302L58 306H54H59V305L60 304H61L62 305V308L65 311L68 308V305L69 304L71 306H76H71L70 305V304L68 302V299L69 298H73L76 301L74 299L75 298H77L81 294L77 290H75L74 289L76 287L73 290H69L68 289V286L70 284V283L71 282H72H71L69 284L68 283V280L65 277Z" stroke="#90EE90" stroke-width="0.5"/>
<path d="M26 277L23 280V283L22 284L20 282H15V287L17 289L16 290H14L11 293V295L14 298H16L17 299L15 301V306H20L22 304L23 305V308L26 311H27L30 308V305L31 304L33 306H38V301L36 299L37 298H39L42 295V293L39 290H37L36 289L38 287V282H37L38 283V287L35 290H31L30 289V285L33 282H35H33L31 284L30 283V281L29 280V279L27 277H26Z" stroke="#90EE90" stroke-width="0.5"/>
<path d="M81 264V265L84 268L81 271V272L80 273H79L76 270H71L68 273V274L71 277H76L79 274H80L83 277V278L84 279L81 282L84 279H85V278L86 277V276L88 274H89L92 277H97L100 274V273L97 270H92L89 273H88L87 272V271L85 269V267L87 265L84 268L81 265V264Z" stroke="#90EE90" stroke-width="0.5"/>
<path d="M49 260V265L46 268H45L43 266L45 268V269L41 273L38 270H33L30 273V274L33 277H38L39 276V275L40 274H41L45 278V279L43 281L45 279H46L49 282V287L46 290H45L42 287V283V287L46 291V290L49 287V282L46 279V278L50 274H51L54 277H59L60 276V275L62 273L59 270H54L51 273H50L46 269V268L49 265V260Z" stroke="#90EE90" stroke-width="0.5"/>
<path d="M61 257L62 258V261L58 265H54H58L60 263H61L62 264V267L65 270L68 267V264L69 263H70L72 265H76H72L68 261V258L69 257H68V259L67 260L65 258L63 260L62 259V257H61Z" stroke="#90EE90" stroke-width="0.5"/>
<path d="M84 256L81 259V260V259L83 257H85L87 259V260V259L84 256Z" stroke="#90EE90" stroke-width="0.5"/>
<path d="M46 256L42 260V264V260L45 257H47L48 258L46 256Z" stroke="#90EE90" stroke-width="0.5"/>
<path d="M7 256L4 259V265L7 268L6 269V270L3 273H2L1 272L2 273V274L1 275L2 274H3L7 278V279L4 282V287V282L7 279H8L10 281V282V281L8 279V278L10 276V275L11 274H12L15 277H20L23 274V273L20 270H15L12 273L8 269V268L9 267V266L10 265L7 268L4 265V259L7 256ZM7 256L10 259L7 256Z" stroke="#90EE90" stroke-width="0.5"/>
<path d="M51 250L49 252V253L51 255V256H52L49 253V252L51 250Z" stroke="#90EE90" stroke-width="0.5"/>
<path d="M40 250L42 252V254L40 256L42 254V252L40 250Z" stroke="#90EE90" stroke-width="0.5"/>
<path d="M13 250L10 253L13 256L11 254V252L13 250Z" stroke="#90EE90" stroke-width="0.5"/>
<path d="M2 250L4 252V253L1 256L4 253V252L2 250Z" stroke="#90EE90" stroke-width="0.5"/>
<path d="M76 249H77L81 253L78 256L81 253L77 249H76Z" stroke="#90EE90" stroke-width="0.5"/>
<path d="M81 246V247L83 249H85L87 247V246V247L85 249H84L81 246Z" stroke="#90EE90" stroke-width="0.5"/>
<path d="M76 246L73 249H71L72 250L70 252V253L72 255V256L76 260L74 258L75 257H74L70 253V252L73 249H74V248L76 246Z" stroke="#90EE90" stroke-width="0.5"/>
<path d="M54 246L55 247V248L54 249H53H56L60 253L56 257H55V258L54 259V260V259L56 257H57L58 256V255L60 253L58 251V250L59 249H61L62 248L61 249H57L54 246Z" stroke="#90EE90" stroke-width="0.5"/>
<path d="M103 236L100 239V242L99 243L97 241H92V246L94 248L93 249H91L87 253L90 256L87 253L91 249H95L98 252V253L94 257H93L94 258L92 260V265H97L99 263L100 264V267L103 270H104L106 268V267L107 266V257V259L106 260H105L103 258L101 260L100 259V257H99L100 258V262L97 265H93L92 264V260L98 254V252L97 251V250L98 249H100V247L101 246H102L103 247V248L106 245L107 246V249V239L104 236H103Z" stroke="#90EE90" stroke-width="0.5"/>
<path d="M64 236L62 238V242L61 243L59 241H54H58L62 245V246H63L65 248L67 246L68 247V249H69L68 248V245L69 244V243L71 241H76H71L69 243L68 242V239L65 236H64Z" stroke="#90EE90" stroke-width="0.5"/>
<path d="M26 236L23 239V242L22 243L20 241H15V246L17 248L16 249H15H18L21 252V254L18 257H16L17 258L15 260V265H20L22 263L23 264V267L26 270H27L29 268V267L30 266V264L31 263L33 265H38V260L36 258V257H35L32 254V252L35 249H38H37L36 248L38 246V241H33L31 243L30 242V239L27 236H26Z" stroke="#90EE90" stroke-width="0.5"/>
<path d="M81 223V224L84 227L79 232L76 229L79 232V233L76 236H72L68 232L71 229H72H71L68 232V233L70 235H71L72 236H76L79 233H80L84 237L82 239V240L81 241L84 238H85L87 240V241V240L85 238V236L88 233H89L91 235H92L93 236H97L100 233V232L97 229L100 232V233L97 236H93L89 232L92 229L89 232L85 228V226L87 224L84 227L81 224V223Z" stroke="#90EE90" stroke-width="0.5"/>
<path d="M84 215L81 218V219V218L84 215ZM84 215L87 218L84 215Z" stroke="#90EE90" stroke-width="0.5"/>
<path d="M45 215L44 216V217L42 219V223L44 225V226L45 227V228L41 232L38 229L41 232L37 236H33L30 233V232L33 229H32L29 232L33 236H37L40 233H41L45 237V238L42 241V246L45 249H46L49 246V241L46 238V237L50 233H51L54 236H58L62 232L59 229H58H59L62 232L58 236H54L51 233V232L54 229H53L50 232L46 228V227L49 224V218L46 215H45Z" stroke="#90EE90" stroke-width="0.5"/>
<path d="M7 215L4 218V224L7 227L4 230V231L3 232H2L1 231L2 232V233L1 234L2 233H3L7 237L6 238V239L4 241V246L6 248V249H8L10 247L8 249H7L4 246V241L7 238H8L10 240L8 238V237L9 236V235L11 233H12L14 235H15L16 236H20L23 233V232L20 229L23 232V233L20 236H16L12 232L15 229L12 232L8 228V226L10 224L7 227L4 224V218L7 215ZM7 215L10 218L8 216V215H7Z" stroke="#90EE90" stroke-width="0.5"/>
<path d="M1 208L4 211V212L1 215L4 212V211L1 208Z" stroke="#90EE90" stroke-width="0.5"/>
<path d="M26 195L23 198V201L22 202L19 199H16L15 200V205L17 207L16 208H14L11 211V212V211L14 208H18L21 211V212L18 215H13L12 214L13 215H16L17 216V217L15 219V224H20L21 223V222L22 221L23 222V225L24 226V227H25L26 228V229L30 225V223L31 222L33 224H38V219L36 217V216L37 215H40L41 214V213L42 212V211L39 208H37L36 207V206L37 205H38V199H34L31 202L30 201V198L27 195H26Z" stroke="#90EE90" stroke-width="0.5"/>
<path d="M103 194V195L100 198V200L99 201H98L96 199H92V205L94 207L93 208H90L89 209V210L87 212L90 215H93L94 216V217L92 219V224H97L99 222L100 223V225L101 226V227L103 229L107 225V215V218L106 219L104 217H103L101 219L100 218V215H97L96 214L98 212V211L96 209L97 208H100V205L101 204L103 206H104L106 204L107 205V208V198L103 194Z" stroke="#90EE90" stroke-width="0.5"/>
<path d="M65 194L62 197V201L61 202L58 199H54V200L55 199H58L61 202V203L62 204V207L61 208H57L54 205L56 207L55 208H52L49 211V212L52 215H55L56 216L54 218V219V218L57 215H61L62 216V220L58 224H54H58L60 222H61L62 223V226L65 229L68 226V223L69 222H70L72 224H76H72L68 220V216L69 215H73L75 217V218L76 219V218L74 216L75 215H78L81 212V211L78 208H75L74 207L76 205L73 208H69L68 207V203L72 199H75L76 200V199H72L70 201H69L68 200V197L65 194Z" stroke="#90EE90" stroke-width="0.5"/>
<path d="M62 177V178L61 179V180L58 183H55L54 182V183H58L63 178L62 177Z" stroke="#90EE90" stroke-width="0.5"/>
<path d="M84 174L81 177V183L84 186L80 190H79L76 187H72L68 191L72 195H76L79 192H80L84 196L81 199V205L84 208H85V207L87 205L84 208L81 205V199L83 197H85L87 199V200V199L85 197V195L89 191L93 195H97L100 192V191L99 190V189L97 187H93L89 191L85 187V185L87 183V182V183L85 185H83L81 183V177L84 174ZM84 174L87 177V178V177L85 175V174H84Z" stroke="#90EE90" stroke-width="0.5"/>
<path d="M45 174L43 176L44 175H45L46 174L49 177V182L46 185H45L42 182V178V182L45 185V186L44 187V188L42 190H40L37 187H33L30 190V192L33 195H37L40 192H42L44 194V195L45 196V197L42 200V204V200L45 197H46L49 200V205L46 208H45L43 206L45 208H46L49 205V200L48 199V198L46 196L49 193V192L50 191L54 195H58L62 191L58 187H54L50 191L49 190V189L46 186L48 184V183L49 182V177L46 174H45Z" stroke="#90EE90" stroke-width="0.5"/>
<path d="M7 174L4 177V183L7 186L3 190H2L1 189V190L2 191L1 192V193L2 192H3L7 196L4 199V205L7 208H8L10 206V205L11 204V201V204L7 208L4 205V199L6 197H8L10 199L8 197V195L11 192H13L16 195H20L23 192V190L20 187H16L13 190H11L8 187V185L10 183L8 185H6L4 183V177L7 174ZM7 174L11 178V181V178L10 177V176L8 174H7Z" stroke="#90EE90" stroke-width="0.5"/>
<path d="M1 167L4 170V171L1 174L4 171V170L1 167Z" stroke="#90EE90" stroke-width="0.5"/>
<path d="M81 163V164L84 167L87 164L84 167L81 164V163Z" stroke="#90EE90" stroke-width="0.5"/>
<path d="M54 163V164L56 166L55 167H52L49 170V171L52 174H55L56 175L54 177L57 174H61H59L58 173L60 171V170L58 168L59 167H61H57L54 164V163Z" stroke="#90EE90" stroke-width="0.5"/>
<path d="M26 154L23 157V160L22 161L20 159V158H15V163L17 165V166L16 167H13L12 168L13 167H18L21 170V171L18 174H14L11 171V170V171L13 173V174H16L17 175L15 177V183H19L22 180L23 181V184L26 187H27L30 184V182L31 181L32 182H33L34 183H38V178L36 176V175L37 174H39L42 171V170L40 168V167H37L36 166V165L38 163V158H33L31 160L30 159V157L27 154H26Z" stroke="#90EE90" stroke-width="0.5"/>
<path d="M103 153L101 155V156L100 157V159L99 160L97 158H92V163L94 165V166L93 167H90L87 170L88 171V172L90 174H93L94 175L92 177V183H96L98 181H99L100 182V184L103 187V188L107 184V174V177L106 178L104 176H103L101 178L100 177V174H97L96 173L98 171V170L96 168L97 167H100V164L101 163L103 165H104L106 163L107 164V167V157L103 153Z" stroke="#90EE90" stroke-width="0.5"/>
<path d="M65 153L62 156V157V156L64 154H66L68 156V162L65 165L58 158H54H58L62 162V164L63 163L65 165L67 163L68 164V167H71L72 168L70 170V171L72 173L71 174H68V177L67 178L65 176H64H65L68 179V184L65 187H64L62 185V184V185L65 188L68 185V182L69 181H70L72 183H76V182L75 183H72L68 179V175L69 174H73L76 177V178V177L74 175L75 174H78L81 171V170L78 167H75L74 166L76 164V163L75 164V165L73 167H69L68 166V162L72 158H75L76 159V158H72L70 160H69L68 159V156L65 153Z" stroke="#90EE90" stroke-width="0.5"/>
<path d="M107 149L106 150L107 151V149Z" stroke="#90EE90" stroke-width="0.5"/>
<path d="M81 141V142L84 145L80 149H79L76 146H72L71 147H70L68 149V150L71 153L68 150L72 146H76L79 149V150L76 153L79 150L84 155L81 158V159V158L84 155L87 158L85 156V154L89 150L92 153L89 150L93 146H97L100 149V150L97 153L100 150V149L97 146H93L92 147H91L89 149H88L85 146V144L87 142V141V142L85 144H84L81 141Z" stroke="#90EE90" stroke-width="0.5"/>
<path d="M83 133L82 134V135L81 136L84 133H85L87 135V136V135L85 133H83Z" stroke="#90EE90" stroke-width="0.5"/>
<path d="M45 133L42 136V141L45 144V145L41 149H40L37 146H33L29 150L32 153H33L30 150V149L33 146H37L41 150L38 153L41 150L45 154V155L44 156V157L42 159V163L43 164V165L45 167H46L49 164V163V164L46 167L42 163V159L46 155L49 158V159V158L46 155L48 153V152L50 150L53 153H54L51 150V149L54 146H58L62 150L59 153L62 150L58 146H54L51 149H50L46 145V144L49 141L46 144H45L42 141V136L45 133ZM45 133H46L49 136L46 133H45Z" stroke="#90EE90" stroke-width="0.5"/>
<path d="M7 133L4 136V141L5 142V143L7 145L3 149H2L1 148L2 149V150L1 151V152L3 150L4 151V152L7 155L4 158V164L7 167L10 164L7 167L4 164V158L7 155L10 158L8 156V154L12 150L15 153L12 150L16 146H20L23 149V150L20 153L21 152H22V151L23 150V149L20 146H16L15 147H14V148L13 149H11L8 146V144L10 142V141V142L8 144H7L4 141V136L7 133ZM7 133H8L10 135V136V135L8 133H7Z" stroke="#90EE90" stroke-width="0.5"/>
<path d="M78 126L81 129L79 131V132V131L80 130H81V129L78 126Z" stroke="#90EE90" stroke-width="0.5"/>
<path d="M1 126L4 129V130L1 133L4 130V129L1 126Z" stroke="#90EE90" stroke-width="0.5"/>
<path d="M81 122V123L84 126L87 123V122V123L84 126L81 123V122Z" stroke="#90EE90" stroke-width="0.5"/>
<path d="M76 122L72 126H71L72 127L70 129V130L72 132L71 133H68V136L67 137L66 136V135H64L63 136H62V137L61 138V139L60 140H59L58 141H59L62 138V137L64 135H65L68 138V143L65 146H64L62 144V143V144L64 146H65L66 145H67L68 144V140L69 139L71 141H72H71L68 138V134L69 133H73L76 136L74 134L75 133H77H73L70 130V129L76 123V122Z" stroke="#90EE90" stroke-width="0.5"/>
<path d="M54 122V123L55 124V125H56L60 129L56 133H52L49 130V129L52 126L49 129V130L52 133H55L56 134L54 136L57 133H61H59L58 132V131L59 130H60V129L58 127V126H57L54 123V122Z" stroke="#90EE90" stroke-width="0.5"/>
<path d="M103 112L101 114L103 112ZM103 112L107 116V120L103 124L100 121V116V118L99 119L97 117H92V122L94 124V125L98 129V130L95 133H91L87 129L90 126L87 129L91 133H93L94 134L92 136V141H93L92 140V136L95 133H99L100 134V138L97 141H96H97L99 139L100 140V143L103 146H104L107 143V133V136L106 137L103 134V135L102 136H101L100 135V133H98L97 132V131L98 130V128L92 122V118L93 117H97L99 119V120L100 121V125V123L101 122L103 124L104 123H105L106 122L107 123V125V116L106 115V114L104 112H103Z" stroke="#90EE90" stroke-width="0.5"/>
<path d="M65 112L62 115V116V115L65 112ZM65 112L68 115V121L65 124L61 120V119H60L58 117H54H58L62 121V123L63 122L65 124L67 122L68 123V125H69L68 124V121L72 117H76H72L70 119H69L68 118V115L65 112Z" stroke="#90EE90" stroke-width="0.5"/>
<path d="M26 112L23 115V118L22 119L20 117H15V122L17 124V125L18 126H19L20 127V128L21 129V130L18 133H14L11 130V128L13 126L10 129L14 133H16L17 134L15 136V141V137L16 136V135L18 133H22L23 134V138L20 141H19H20L22 139L23 140V143L26 146H27L30 143V140L31 139L33 141L30 138V134L31 133H35L36 134V135L38 137V140L37 141H38V136L36 134L37 133H39L42 130V128L40 126L42 128V130L39 133H35L32 130V128L34 126H35L36 125V124L38 122V117H33L31 119L30 118V116L28 114V113L27 112H26Z" stroke="#90EE90" stroke-width="0.5"/>
<path d="M81 100L84 103L83 104V105L80 108H79L76 105H71L68 108V109L71 112H76L79 109H80L81 110V111L84 114L81 117V118V117L84 114L87 117L84 114L87 111L85 113H84L80 109V108L84 104H85L86 105V106L88 108V109H89L92 112H97L100 109V108L97 105H92L89 108H88L86 106V105L85 104V103L86 102V101L87 100L86 101V102L85 103H84L81 100Z" stroke="#90EE90" stroke-width="0.5"/>
<path d="M107 92V94L106 95H105L103 93V94H104L107 97V101V92Z" stroke="#90EE90" stroke-width="0.5"/>
<path d="M84 91L81 94V95L84 92H85L87 94V95V94L84 91Z" stroke="#90EE90" stroke-width="0.5"/>
<path d="M46 91L42 95V99V95L45 92H46L49 95V100L46 103H45L43 101L45 103V104L41 108H40L39 107V106L38 105H33L30 108V109L33 112H38L41 109L45 113V114L43 116V117L42 118V122L46 126L48 124L46 126L42 122V118L46 114L49 117V122V117L46 114V113L50 109H51L54 112H59L62 109L60 107V106L59 105H54L51 108H50L46 104V103L49 100V95L46 92V91Z" stroke="#90EE90" stroke-width="0.5"/>
<path d="M7 91L6 92V93L4 95V100L7 103V104L3 108H2L1 107L2 108V109L1 110L2 109H3L6 112V113L7 114L4 117V123L7 126L10 123L7 126L4 123V117L7 114L10 117L8 115V113L12 109L15 112H20L23 109V108L20 105H15L12 108H11L10 107V106L8 104V103L10 101L8 103H7L4 100V95L7 92H8L10 94L7 91Z" stroke="#90EE90" stroke-width="0.5"/>
<path d="M1 85L4 88L1 91V92L2 91V90L4 88L2 86V85H1Z" stroke="#90EE90" stroke-width="0.5"/>
<path d="M81 81V82L84 85L87 82V81V82L85 84H84L81 81Z" stroke="#90EE90" stroke-width="0.5"/>
<path d="M103 71L100 74V77L99 78L97 76H92V81L94 83L93 84H91L87 88L91 92H93L94 93L92 95V100H93L92 99V95L95 92H99L100 93V97L97 100H96H97L99 98L100 99V102L103 105H104L106 103L104 105H103L100 102V97L101 96V95L100 94V92H97L96 91L98 89V87L97 86V85L98 84H100V82L101 81H102L103 82V83L105 81H106L107 82V84V74L104 71H103Z" stroke="#90EE90" stroke-width="0.5"/>
<path d="M65 71L62 74V77L61 78H60L59 77V76H54H58L62 80V83L61 84H60H61L62 83V82L63 81L65 83L67 81L68 82V84H70L72 86L70 88L72 90V91L71 92H68V94L67 95L65 93L63 95L62 94V93L61 92H59L58 91V90L60 88L58 86V84H57L54 81L55 82V83L54 84H53L52 85H51L50 86V87L49 88L50 89V90L52 92H55L56 93L54 95L57 92H61L62 93V96L58 100H59L61 98L62 99V102L65 105L68 102V99L69 98L71 100H72H71L70 99V98L68 96V93L69 92H73L76 95L74 93L75 92H77L81 88L77 84H76H77L81 88L77 92H74L70 88L74 84V83L76 81L72 85H71L70 84H69L68 83V80L72 76H76H71V77L70 78H69L68 77V74L65 71Z" stroke="#90EE90" stroke-width="0.5"/>
<path d="M26 71L23 74V77L22 78L20 76H15V81L17 83L16 84H15H18L21 87V89L18 92H14L11 89V87L13 85L11 87V89L14 92H16L17 93L15 95V100V95L18 92H22L23 93V97L20 100H19H20L22 98L23 99V102L26 105H27L30 102V99L31 98L33 100H34H33L30 97V93L31 92H35L38 95V99L37 100H38V95L36 93L37 92H39L42 89V87L40 85L42 87V89L39 92H35L32 89V87L35 84H38H37L36 83L38 81V76H33L31 78L30 77V74L27 71H26Z" stroke="#90EE90" stroke-width="0.5"/>
<path d="M81 58V59L84 62L79 67L76 64H71L68 67V68L71 71H76L79 68H80L84 72V73L81 76L84 73H85L86 74V75L87 76L86 75V74L85 73V72L86 71V70L88 68H89L92 71H97L100 68V67L97 64H92L89 67L85 63V61L87 59L84 62L81 59V58Z" stroke="#90EE90" stroke-width="0.5"/>
<path d="M61 51L62 52V55L58 59H54H58L60 57H61L62 58V61L65 64L68 61V58L69 57H70L72 59H76H72L68 55V52L69 51H68V53L67 54L65 52L63 54L62 53V51H61Z" stroke="#90EE90" stroke-width="0.5"/>
<path d="M84 50L81 53V54V53L84 50ZM84 50L87 53L84 50Z" stroke="#90EE90" stroke-width="0.5"/>
<path d="M46 50L42 54V58L43 59V60L45 62V63L41 67L38 64H33L30 67V68L33 71H38L39 70V69L40 68H41L45 72V73L42 76V81L46 85L47 84V83L49 81V76L46 73V72L50 68H51L54 71H59L61 69V68L62 67L59 64H54L51 67H50L46 63V62L49 59V53L46 50Z" stroke="#90EE90" stroke-width="0.5"/>
<path d="M7 50L4 53V59L7 62V63L3 67H2L1 66L2 67V68L1 69L2 68H3L7 72V73L4 76V81L5 82V83L7 85L10 82L8 84H7L4 81V76L7 73H8L10 75V76V75L8 73V72L12 68L15 71H20L23 68V67L20 64H15L12 67L8 63V62L9 61V60L10 59L7 62L4 59V53L7 50ZM7 50L10 53L7 50Z" stroke="#90EE90" stroke-width="0.5"/>
<path d="M79 44V45L81 47L78 50L81 47L79 45V44Z" stroke="#90EE90" stroke-width="0.5"/>
<path d="M1 43L4 46V47L1 50L4 47V46L1 43Z" stroke="#90EE90" stroke-width="0.5"/>
<path d="M81 40L84 43H85L86 42V41L87 40L86 41V42L85 43H84L81 40Z" stroke="#90EE90" stroke-width="0.5"/>
<path d="M54 40L55 41V42L54 43H52L49 46V47L52 50L49 47V46L52 43H56L60 47L54 53V54V53L57 50H58V49L60 47L59 46V45L58 44L59 43H62V42L61 43H57L54 40Z" stroke="#90EE90" stroke-width="0.5"/>
<path d="M103 30L100 33V36L99 37L97 35L100 38V42L99 43H95L92 40V35V40L94 42L93 43H91L87 47L90 50L87 47L91 43H95L98 46V47L94 51V52L92 54V59H97L99 57L100 58V61L103 64H104L106 62V61L107 60V51V53L106 54L104 52H103L101 54L100 53V51V56L97 59H93L92 58V54L96 50H97V49L99 47L96 44L97 43H100V41L101 40H102L103 41H104L106 39L107 40V43V33L104 30H103Z" stroke="#90EE90" stroke-width="0.5"/>
<path d="M64 30L63 31V32L62 33L63 32V31L64 30ZM64 30H65L68 33V38L65 41H64L62 39V38L59 35H58L62 39V40H63L64 41H66L67 40L68 41V43H71L72 44L70 46V47L72 49L71 50H72L76 54V53L70 47V46L73 43H77H75L74 42L76 40L73 43H69L68 42V38L71 35H72H71L69 37L68 36V33L65 30H64Z" stroke="#90EE90" stroke-width="0.5"/>
<path d="M26 30L23 33V36L22 37L20 35L23 38V42L22 43H18L15 40V35V40L17 42L16 43H14L10 47L13 50L11 48V46L14 43H18L21 46V48L19 50H18L17 51V52L15 54V59H20L22 57L23 58V61L26 64H27L29 62V61L30 60V58L31 57L33 59H38V54L36 52V51L35 50H34L32 48V46L35 43H39L42 46V48L40 50H39H40L43 47L39 43H37L36 42L38 40V35V39L37 40V41L35 43H31L30 42V38L33 35L31 37L30 36V33L27 30H26Z" stroke="#90EE90" stroke-width="0.5"/>
<path d="M81 17V18L84 21L80 25H79L76 22H72L68 26L71 29L68 26L72 22H75L79 26V27L77 29H76H77L79 27H80L84 31L81 34V35V34L83 32H85L87 34V35V34L84 31L89 26L92 29L89 26L93 22H96L100 26V27L98 29H97H98L100 27V26L99 25V24L97 22H93L89 26L85 22V20L87 18V17V18L84 21L81 18V17Z" stroke="#90EE90" stroke-width="0.5"/>
<path d="M84 9L81 12V13V12L84 9ZM84 9L87 12L85 10V9H84Z" stroke="#90EE90" stroke-width="0.5"/>
<path d="M45 9L43 11V12L42 13V17L45 20V21L44 22V23L41 26L37 22H33L30 25V27L32 29L30 27V26L31 25V24L33 22H37L41 26L38 29L40 27H42L44 29V30L45 31V32L42 35V39V35L45 32H46L49 35V40L46 43H45L43 41L45 43H46L49 40V35L47 33V32L46 31L50 27H51L53 29L51 27V25L54 22H58L62 26L59 29L62 26L58 22H54L50 26L49 25V24L46 21L48 19V18L49 17V12L46 9H45Z" stroke="#90EE90" stroke-width="0.5"/>
<path d="M7 9L4 12V18L7 21L3 25H2L1 24V25L2 26V27L1 28L2 27H3L7 31L5 33V34L4 35V40L7 43H8L10 41V40V41L8 43H7L4 40V35L7 32H8L10 34L8 32V30L11 27H13L15 29L12 26L16 22H19L23 26L22 27V28L21 29H20H21L23 27V25L20 22H16L13 25H11L8 22V20L10 18L7 21L4 18V12L7 9ZM7 9L10 12L9 11V10L8 9H7Z" stroke="#90EE90" stroke-width="0.5"/>
<path d="M1 2L4 5V6L1 9L4 6V5L1 2Z" stroke="#90EE90" stroke-width="0.5"/>
<path d="M94 1L93 2H90L87 5L89 7V8L90 9H93L94 10L93 11V12L92 13V18H96L98 16H99L100 17V19L103 22V23L107 19V9V12L106 13L104 11H103L101 13L100 12V9H97L96 8L98 6V5L96 3L97 2H100V1L99 2H96L95 1H94Z" stroke="#90EE90" stroke-width="0.5"/>
<path d="M83 1L84 2L85 1L84 2L83 1Z" stroke="#90EE90" stroke-width="0.5"/>
<path d="M56 1L55 2H52L49 5V6L52 9H55L56 10L54 12L57 9H61L62 10V13L61 14V15L58 18H55L54 17V18H58L65 11L68 14V19L65 22H64L62 20V17V20L65 23L68 20V16L69 15L72 18H76V17L75 18H72L68 14V10L69 9H73L76 12V13V12L74 10L75 9H78L81 6V5L78 2H75L74 1L73 2H69L68 1V2H71L72 3L70 5V6L72 8L71 9H68V12L67 13L65 11L63 13L62 12V10L61 9H59L58 8L60 6V5L58 3L59 2H61H57L56 1Z" stroke="#90EE90" stroke-width="0.5"/>
<path d="M44 1L45 2H46L47 1L46 2L45 1H44Z" stroke="#90EE90" stroke-width="0.5"/>
<path d="M17 1L16 2H13L12 3V4L11 5V6L13 8V9H16L17 10L16 11V12L15 13V18H19L22 15L23 16V19L26 22H27L30 19V16L31 15L32 16V17L33 18H38V13L36 11V10L37 9H39L42 6V5L40 3V2H37L36 1H35L34 2H31L30 1V2H33L34 3L32 5V6L34 8L33 9H30V12L29 13L27 11H26L24 13L23 12V9H20L19 8L21 6V5L19 3L20 2H23V1L22 2H19L18 1H17Z" stroke="#90EE90" stroke-width="0.5"/>
<path d="M6 1L7 2L8 1L7 2L6 1Z" stroke="#90EE90" stroke-width="0.5"/>
</svg>
