<svg width="34" height="33" viewBox="0 0 34 33" fill="none" xmlns="http://www.w3.org/2000/svg">
<path d="M17 0C26.108 0 33.5 7.392 33.5 16.5C33.5 25.608 26.108 33 17 33C7.892 33 0.5 25.608 0.5 16.5C0.5 7.392 7.892 0 17 0ZM7.8755 9.1245L20.6135 21.8625H15.6305C14.954 21.8625 14.393 22.4235 14.393 23.1C14.393 23.7765 14.954 24.3375 15.6305 24.3375H23.6C24.2765 24.3375 24.8375 23.7765 24.8375 23.1V15.1305C24.8375 14.454 24.2765 13.893 23.6 13.893C22.9235 13.893 22.3625 14.454 22.3625 15.1305V20.1135L9.6245 7.3755C9.377 7.128 9.0635 7.0125 8.75 7.0125C8.4365 7.0125 8.123 7.128 7.8755 7.3755C7.397 7.854 7.397 8.646 7.8755 9.1245Z" fill="#07A550"/>
</svg>
