<svg width="61" height="61" viewBox="0 0 61 61" fill="none" xmlns="http://www.w3.org/2000/svg">
<path d="M30.5003 55.9165C44.5303 55.9165 55.917 44.5298 55.917 30.4998C55.917 16.4698 44.5303 5.08317 30.5003 5.08317C16.4703 5.08317 5.08366 16.4698 5.08366 30.4998C5.08366 44.5298 16.4703 55.9165 30.5003 55.9165ZM16.4449 41.8611L36.0666 22.2394H28.3907C27.3487 22.2394 26.4845 21.3753 26.4845 20.3332C26.4845 19.2911 27.3487 18.4269 28.3907 18.4269H40.667C41.7091 18.4269 42.5732 19.2911 42.5732 20.3332V32.6094C42.5732 33.6515 41.7091 34.5157 40.667 34.5157C39.6249 34.5157 38.7607 33.6515 38.7607 32.6094V24.9336L19.1391 44.5553C18.7578 44.9365 18.2749 45.1144 17.792 45.1144C17.3091 45.1144 16.8262 44.9365 16.4449 44.5553C15.7078 43.8182 15.7078 42.5982 16.4449 41.8611Z" fill="#07A550"/>
</svg>
