<svg width="100" height="100" viewBox="0 0 100 100" fill="none" xmlns="http://www.w3.org/2000/svg">
<path d="M50.0007 70.8335C51.1812 70.8335 52.1715 70.4335 52.9715 69.6335C53.7715 68.8335 54.1701 67.8446 54.1673 66.6668C54.1645 65.489 53.7645 64.5002 52.9673 63.7002C52.1701 62.9002 51.1812 62.5002 50.0007 62.5002C48.8201 62.5002 47.8312 62.9002 47.034 63.7002C46.2368 64.5002 45.8368 65.489 45.834 66.6668C45.8312 67.8446 46.2312 68.8349 47.034 69.6377C47.8368 70.4404 48.8257 70.839 50.0007 70.8335ZM45.834 54.1668H54.1673V29.1668H45.834V54.1668ZM50.0007 91.6668C44.2368 91.6668 38.8201 90.5724 33.7507 88.3835C28.6812 86.1946 24.2715 83.2266 20.5215 79.4793C16.7715 75.7321 13.8034 71.3224 11.6173 66.2502C9.43121 61.1779 8.33677 55.7613 8.33399 50.0002C8.33121 44.2391 9.42566 38.8224 11.6173 33.7502C13.809 28.6779 16.777 24.2682 20.5215 20.521C24.2659 16.7738 28.6757 13.8057 33.7507 11.6168C38.8257 9.42794 44.2423 8.3335 50.0007 8.3335C55.759 8.3335 61.1757 9.42794 66.2507 11.6168C71.3257 13.8057 75.7354 16.7738 79.4798 20.521C83.2243 24.2682 86.1937 28.6779 88.3882 33.7502C90.5826 38.8224 91.6757 44.2391 91.6673 50.0002C91.659 55.7613 90.5645 61.1779 88.384 66.2502C86.2034 71.3224 83.2354 75.7321 79.4798 79.4793C75.7243 83.2266 71.3145 86.196 66.2507 88.3877C61.1868 90.5793 55.7701 91.6724 50.0007 91.6668Z" fill="white"/>
</svg>
